<?xml version="1.0" ?><svg contentScriptType="text/ecmascript" contentStyleType="text/css" enable-background="new 0 0 2048 2048" height="2048px" id="Layer_1" preserveAspectRatio="xMidYMid meet" version="1.1" viewBox="0.0 0 1408.0 2048" width="1408.0px" xml:space="preserve" xmlns="http://www.w3.org/2000/svg" xmlns:xlink="http://www.w3.org/1999/xlink" zoomAndPan="magnify"><path d="M384,1440v64c0,8.667-3.167,16.167-9.5,22.5s-13.833,9.5-22.5,9.5h-64c-8.667,0-16.167-3.167-22.5-9.5s-9.5-13.833-9.5-22.5  v-64c0-8.667,3.167-16.167,9.5-22.5s13.833-9.5,22.5-9.5h64c8.667,0,16.167,3.167,22.5,9.5S384,1431.333,384,1440z M384,1184v64  c0,8.667-3.167,16.167-9.5,22.5s-13.833,9.5-22.5,9.5h-64c-8.667,0-16.167-3.167-22.5-9.5s-9.5-13.833-9.5-22.5v-64  c0-8.667,3.167-16.167,9.5-22.5s13.833-9.5,22.5-9.5h64c8.667,0,16.167,3.167,22.5,9.5S384,1175.333,384,1184z M640,1184v64  c0,8.667-3.167,16.167-9.5,22.5s-13.833,9.5-22.5,9.5h-64c-8.667,0-16.167-3.167-22.5-9.5s-9.5-13.833-9.5-22.5v-64  c0-8.667,3.167-16.167,9.5-22.5s13.833-9.5,22.5-9.5h64c8.667,0,16.167,3.167,22.5,9.5S640,1175.333,640,1184z M384,928v64  c0,8.667-3.167,16.167-9.5,22.5s-13.833,9.5-22.5,9.5h-64c-8.667,0-16.167-3.167-22.5-9.5s-9.5-13.833-9.5-22.5v-64  c0-8.667,3.167-16.167,9.5-22.5s13.833-9.5,22.5-9.5h64c8.667,0,16.167,3.167,22.5,9.5S384,919.333,384,928z M1152,1440v64  c0,8.667-3.167,16.167-9.5,22.5s-13.833,9.5-22.5,9.5h-64c-8.667,0-16.167-3.167-22.5-9.5s-9.5-13.833-9.5-22.5v-64  c0-8.667,3.167-16.167,9.5-22.5s13.833-9.5,22.5-9.5h64c8.667,0,16.167,3.167,22.5,9.5S1152,1431.333,1152,1440z M896,1184v64  c0,8.667-3.167,16.167-9.5,22.5s-13.833,9.5-22.5,9.5h-64c-8.667,0-16.167-3.167-22.5-9.5s-9.5-13.833-9.5-22.5v-64  c0-8.667,3.167-16.167,9.5-22.5s13.833-9.5,22.5-9.5h64c8.667,0,16.167,3.167,22.5,9.5S896,1175.333,896,1184z M640,928v64  c0,8.667-3.167,16.167-9.5,22.5s-13.833,9.5-22.5,9.5h-64c-8.667,0-16.167-3.167-22.5-9.5s-9.5-13.833-9.5-22.5v-64  c0-8.667,3.167-16.167,9.5-22.5s13.833-9.5,22.5-9.5h64c8.667,0,16.167,3.167,22.5,9.5S640,919.333,640,928z M384,672v64  c0,8.667-3.167,16.167-9.5,22.5S360.667,768,352,768h-64c-8.667,0-16.167-3.167-22.5-9.5S256,744.667,256,736v-64  c0-8.667,3.167-16.167,9.5-22.5s13.833-9.5,22.5-9.5h64c8.667,0,16.167,3.167,22.5,9.5S384,663.333,384,672z M1152,1184v64  c0,8.667-3.167,16.167-9.5,22.5s-13.833,9.5-22.5,9.5h-64c-8.667,0-16.167-3.167-22.5-9.5s-9.5-13.833-9.5-22.5v-64  c0-8.667,3.167-16.167,9.5-22.5s13.833-9.5,22.5-9.5h64c8.667,0,16.167,3.167,22.5,9.5S1152,1175.333,1152,1184z M896,928v64  c0,8.667-3.167,16.167-9.5,22.5s-13.833,9.5-22.5,9.5h-64c-8.667,0-16.167-3.167-22.5-9.5s-9.5-13.833-9.5-22.5v-64  c0-8.667,3.167-16.167,9.5-22.5s13.833-9.5,22.5-9.5h64c8.667,0,16.167,3.167,22.5,9.5S896,919.333,896,928z M640,672v64  c0,8.667-3.167,16.167-9.5,22.5S616.667,768,608,768h-64c-8.667,0-16.167-3.167-22.5-9.5S512,744.667,512,736v-64  c0-8.667,3.167-16.167,9.5-22.5s13.833-9.5,22.5-9.5h64c8.667,0,16.167,3.167,22.5,9.5S640,663.333,640,672z M384,416v64  c0,8.667-3.167,16.167-9.5,22.5S360.667,512,352,512h-64c-8.667,0-16.167-3.167-22.5-9.5S256,488.667,256,480v-64  c0-8.667,3.167-16.167,9.5-22.5s13.833-9.5,22.5-9.5h64c8.667,0,16.167,3.167,22.5,9.5S384,407.333,384,416z M1152,928v64  c0,8.667-3.167,16.167-9.5,22.5s-13.833,9.5-22.5,9.5h-64c-8.667,0-16.167-3.167-22.5-9.5s-9.5-13.833-9.5-22.5v-64  c0-8.667,3.167-16.167,9.5-22.5s13.833-9.5,22.5-9.5h64c8.667,0,16.167,3.167,22.5,9.5S1152,919.333,1152,928z M896,672v64  c0,8.667-3.167,16.167-9.5,22.5S872.667,768,864,768h-64c-8.667,0-16.167-3.167-22.5-9.5S768,744.667,768,736v-64  c0-8.667,3.167-16.167,9.5-22.5s13.833-9.5,22.5-9.5h64c8.667,0,16.167,3.167,22.5,9.5S896,663.333,896,672z M640,416v64  c0,8.667-3.167,16.167-9.5,22.5S616.667,512,608,512h-64c-8.667,0-16.167-3.167-22.5-9.5S512,488.667,512,480v-64  c0-8.667,3.167-16.167,9.5-22.5s13.833-9.5,22.5-9.5h64c8.667,0,16.167,3.167,22.5,9.5S640,407.333,640,416z M1152,672v64  c0,8.667-3.167,16.167-9.5,22.5s-13.833,9.5-22.5,9.5h-64c-8.667,0-16.167-3.167-22.5-9.5s-9.5-13.833-9.5-22.5v-64  c0-8.667,3.167-16.167,9.5-22.5s13.833-9.5,22.5-9.5h64c8.667,0,16.167,3.167,22.5,9.5S1152,663.333,1152,672z M896,416v64  c0,8.667-3.167,16.167-9.5,22.5S872.667,512,864,512h-64c-8.667,0-16.167-3.167-22.5-9.5S768,488.667,768,480v-64  c0-8.667,3.167-16.167,9.5-22.5s13.833-9.5,22.5-9.5h64c8.667,0,16.167,3.167,22.5,9.5S896,407.333,896,416z M1152,416v64  c0,8.667-3.167,16.167-9.5,22.5s-13.833,9.5-22.5,9.5h-64c-8.667,0-16.167-3.167-22.5-9.5s-9.5-13.833-9.5-22.5v-64  c0-8.667,3.167-16.167,9.5-22.5s13.833-9.5,22.5-9.5h64c8.667,0,16.167,3.167,22.5,9.5S1152,407.333,1152,416z M896,1792h384V256  H128v1536h384v-224c0-8.667,3.167-16.167,9.5-22.5s13.833-9.5,22.5-9.5h320c8.667,0,16.167,3.167,22.5,9.5s9.5,13.833,9.5,22.5V1792  z M1408,192v1664c0,17.333-6.333,32.333-19,45s-27.667,19-45,19H64c-17.333,0-32.333-6.333-45-19s-19-27.667-19-45V192  c0-17.333,6.333-32.333,19-45s27.667-19,45-19h1280c17.333,0,32.333,6.333,45,19S1408,174.667,1408,192z"/></svg>