<?xml version="1.0" ?><svg contentScriptType="text/ecmascript" contentStyleType="text/css" enable-background="new 0 0 2048 2048" height="2048px" id="Layer_1" preserveAspectRatio="xMidYMid meet" version="1.1" viewBox="0.0 0 1024.0 2048" width="1024.0px" xml:space="preserve" xmlns="http://www.w3.org/2000/svg" xmlns:xlink="http://www.w3.org/1999/xlink" zoomAndPan="magnify"><path d="M512,1280c0-24-6.667-47-20-69c-0.667-0.667-5.833-8.167-15.5-22.5s-18.167-27-25.5-38s-15.667-25.667-25-44  s-16.333-35.167-21-50.5c-2.667-10.667-9.667-16-21-16s-18.333,5.333-21,16c-4.667,15.333-11.667,32.167-21,50.5s-17.667,33-25,44  s-15.833,23.667-25.5,38s-14.833,21.833-15.5,22.5c-13.333,22-20,45-20,69c0,35.333,12.5,65.5,37.5,90.5s55.167,37.5,90.5,37.5  s65.5-12.5,90.5-37.5S512,1315.333,512,1280z M1024,1152c0,141.333-50,262-150,362s-220.667,150-362,150s-262-50-362-150  S0,1293.333,0,1152c0-96.667,27-188.333,81-275c4-6,24.833-36.167,62.5-90.5s71.333-104.667,101-151  c29.667-46.333,62.833-105.667,99.5-178S408.333,318,427,256c6-20,17.333-35.667,34-47s33.667-17,51-17c17.333,0,34.5,5.667,51.5,17  s28.167,27,33.5,47c18.667,62,46.333,129.167,83,201.5s69.833,131.667,99.5,178c29.667,46.333,63.333,96.667,101,151  S939,871,943,877C997,961.667,1024,1053.333,1024,1152z"/></svg>