<?xml version="1.0" ?><svg contentScriptType="text/ecmascript" contentStyleType="text/css" enable-background="new 0 0 2048 2048" height="2048px" id="Layer_1" preserveAspectRatio="xMidYMid meet" version="1.1" viewBox="0.0 0 1792.0 2048" width="1792.0px" xml:space="preserve" xmlns="http://www.w3.org/2000/svg" xmlns:xlink="http://www.w3.org/1999/xlink" zoomAndPan="magnify"><path d="M81,257l54,27c13.333,3.333,83.667,5,211,5h130l19-3l115-1l215,1h293l34,2c9.333,0.667,18.667-1.667,28-7  s16.333-10.667,21-16l7-8l42-1c10,0,19.333,0.333,28,1v104.5c0,0,0.333,43.833,1,131.5l1,100l-1,58c0,21.333-1.333,38.333-4,51  c-26,10-48.667,16-68,18c-16.667-28.667-34.667-71.333-54-128c-5.333-16-10.5-36.833-15.5-62.5s-8.833-47.5-11.5-65.5  s-4.667-27.667-6-29c-8.667-10-17.667-16.333-27-19c-4.667-1.333-18.833-2-42.5-2s-58.167,0.333-103.5,1s-82.333,1-111,1  c-22.667,0-45,1.667-67,5c-6.667,64.667-9.333,110-8,136l1,152v332l3,359l-1,147c-0.667,30.667,3,59,11,85  c32.667,16.667,62.333,27.333,89,32c1.333,0,7.333,1.667,18,5s25.333,7.667,44,13s33,9.333,43,12c20,5.333,36.667,11.333,50,18  c3.333,30,5,46.667,5,50c0,6.667-1,16.333-3,29c-9.333,0.667-20.667,1-34,1c-73.333,0-135.667-3.333-187-10  c-48-5.333-127.333-8-238-8c-58.667,0-136.333,4.667-233,14c-32,2.667-55.333,4-70,4c-1.333-14.667-2-23.333-2-26l-1-26v-9  c14-22,40.333-38.333,79-49c92.667-25.333,145.667-42,159-50c6-14,10-32.667,12-56c5.333-128,7.333-272.333,6-433l-5-428  c-0.667-41.333-0.833-80.833-0.5-118.5S507,524.667,507,494s-0.667-49.667-2-57s-3.333-12.333-6-15c-4-3.333-8.667-5.333-14-6  c-25.333-4-74.667-6-148-6c-28.667,0-62,4.5-100,13.5s-62.333,17.167-73,24.5c-8.667,6-16,17-22,33s-13.333,41-22,75  s-16.667,62-24,84c-4,12.667-10.5,23.333-19.5,32S60.667,685,56,685c-29.333-18-48-32.667-56-44V344v-86L81,257z M1744,1536  c22,0,36,6.167,42,18.5s2.333,27.167-11,44.5l-126,162c-13.333,17.333-29.667,26-49,26s-35.667-8.667-49-26l-126-162  c-13.333-17.333-17-32.167-11-44.5s20-18.5,42-18.5h80V512h-80c-22,0-36-6.167-42-18.5s-2.333-27.167,11-44.5l126-162  c13.333-17.333,29.667-26,49-26s35.667,8.667,49,26l126,162c13.333,17.333,17,32.167,11,44.5s-20,18.5-42,18.5h-80v1024H1744z"/></svg>