<?xml version="1.0" ?><svg contentScriptType="text/ecmascript" contentStyleType="text/css" enable-background="new 0 0 2048 2048" height="2048px" id="Layer_1" preserveAspectRatio="xMidYMid meet" version="1.1" viewBox="0.0 0 640.0 2048" width="640.0px" xml:space="preserve" xmlns="http://www.w3.org/2000/svg" xmlns:xlink="http://www.w3.org/1999/xlink" zoomAndPan="magnify"><path d="M640,1472v128c0,17.333-6.333,32.333-19,45s-27.667,19-45,19H64c-17.333,0-32.333-6.333-45-19s-19-27.667-19-45v-128  c0-17.333,6.333-32.333,19-45s27.667-19,45-19h64v-384H64c-17.333,0-32.333-6.333-45-19S0,977.333,0,960V832  c0-17.333,6.333-32.333,19-45s27.667-19,45-19h384c17.333,0,32.333,6.333,45,19s19,27.667,19,45v576h64c17.333,0,32.333,6.333,45,19  S640,1454.667,640,1472z M512,320v192c0,17.333-6.333,32.333-19,45s-27.667,19-45,19H192c-17.333,0-32.333-6.333-45-19  s-19-27.667-19-45V320c0-17.333,6.333-32.333,19-45s27.667-19,45-19h256c17.333,0,32.333,6.333,45,19S512,302.667,512,320z"/></svg>