<?xml version="1.0" ?><svg contentScriptType="text/ecmascript" contentStyleType="text/css" enable-background="new 0 0 2048 2048" height="2048px" id="Layer_1" preserveAspectRatio="xMidYMid meet" version="1.1" viewBox="0.0 0 1664.0 2048" width="1664.0px" xml:space="preserve" xmlns="http://www.w3.org/2000/svg" xmlns:xlink="http://www.w3.org/1999/xlink" zoomAndPan="magnify"><path d="M1664,1014c0,110.667-20,215.333-60,314l-20,49l-185,33c-14.667,55.333-44.833,100.833-90.5,136.5s-97.833,53.5-156.5,53.5  v32c0,9.333-3,17-9,23s-13.667,9-23,9h-64c-9.333,0-17-3-23-9s-9-13.667-9-23v-576c0-9.333,3-17,9-23s13.667-9,23-9h64  c9.333,0,17,3,23,9s9,13.667,9,23v32c47.333,0,90.667,11.833,130,35.5s70.333,55.5,93,95.5l68-12c19.333-63.333,29-127.667,29-193  c0-98.667-29.333-191.667-88-279s-137.5-157-236.5-209S943.333,448,832,448s-216.5,26-315.5,78S338.667,647.667,280,735  s-88,180.333-88,279c0,65.333,9.667,129.667,29,193l68,12c22.667-40,53.667-71.833,93-95.5s82.667-35.5,130-35.5v-32  c0-9.333,3-17,9-23s13.667-9,23-9h64c9.333,0,17,3,23,9s9,13.667,9,23v576c0,9.333-3,17-9,23s-13.667,9-23,9h-64c-9.333,0-17-3-23-9  s-9-13.667-9-23v-32c-58.667,0-110.833-17.833-156.5-53.5s-75.833-81.167-90.5-136.5l-185-33l-20-49c-40-98.667-60-203.333-60-314  c0-100.667,22.333-197.667,67-291s104.333-174.167,179-242.5S409.333,357.667,512,317s209.333-61,320-61s217.333,20.333,320,61  s191.333,95.167,266,163.5s134.333,149.167,179,242.5S1664,913.333,1664,1014z"/></svg>