<?xml version="1.0" ?><svg contentScriptType="text/ecmascript" contentStyleType="text/css" enable-background="new 0 0 2048 2048" height="2048px" id="Layer_1" preserveAspectRatio="xMidYMid meet" version="1.1" viewBox="0.0 0 1536.0 2048" width="1536.0px" xml:space="preserve" xmlns="http://www.w3.org/2000/svg" xmlns:xlink="http://www.w3.org/1999/xlink" zoomAndPan="magnify"><path d="M1173,1191c0-33.333-6.5-63.833-19.5-91.5s-29.167-50.5-48.5-68.5s-43.667-34.333-73-49c-29.333-14.667-56.833-26-82.5-34  s-54.833-15.667-87.5-23l-104-24c-20-4.667-34.667-8.167-44-10.5s-21-6.167-35-11.5s-24-10.667-30-16s-11.5-12.333-16.5-21  s-7.5-18.667-7.5-30c0-51.333,48-77,144-77c28.667,0,54.333,4,77,12s40.667,17.5,54,28.5s26,22.167,38,33.5s25.333,21,40,29  s30.667,12,48,12c31.333,0,56.5-10.667,75.5-32s28.5-47,28.5-77c0-36.667-18.667-69.833-56-99.5  c-37.333-29.667-84.667-52.167-142-67.5s-118-23-182-23c-45.333,0-89.333,5.167-132,15.5s-82.5,26-119.5,47s-66.667,50-89,87  S376,780.333,376,829c0,40.667,6.333,76.167,19,106.5s31.333,55.5,56,75.5s51.333,36.167,80,48.5c28.667,12.333,63,23.167,103,32.5  l146,36c60,14.667,97.333,26.667,112,36c21.333,13.333,32,33.333,32,60c0,26-13.333,47.5-40,64.5s-61.667,25.5-105,25.5  c-34,0-64.5-5.333-91.5-16s-48.667-23.5-65-38.5s-31.5-30-45.5-45s-29.333-27.833-46-38.5s-34.667-16-54-16  c-33.333,0-58.5,10-75.5,30s-25.5,45-25.5,75c0,61.333,40.667,113.833,122,157.5s178.333,65.5,291,65.5  c48.667,0,95.333-6.167,140-18.5s85.5-30.167,122.5-53.5s66.5-54.5,88.5-93.5S1173,1239.667,1173,1191z M1536,1408  c0,106-37.5,196.5-112.5,271.5S1258,1792,1152,1792c-86.667,0-164.667-26.667-234-80c-51.333,10.667-101.333,16-150,16  c-95.333,0-186.5-18.5-273.5-55.5s-162-87-225-150s-113-138-150-225S64,1119.333,64,1024c0-48.667,5.333-98.667,16-150  C26.667,804.667,0,726.667,0,640c0-106,37.5-196.5,112.5-271.5S278,256,384,256c86.667,0,164.667,26.667,234,80  c51.333-10.667,101.333-16,150-16c95.333,0,186.5,18.5,273.5,55.5s162,87,225,150s113,138,150,225S1472,928.667,1472,1024  c0,48.667-5.333,98.667-16,150C1509.333,1243.333,1536,1321.333,1536,1408z"/></svg>