<?xml version="1.0" ?><svg contentScriptType="text/ecmascript" contentStyleType="text/css" enable-background="new 0 0 2048 2048" height="2048px" id="Layer_1" preserveAspectRatio="xMidYMid meet" version="1.1" viewBox="5.0 0 1531.0 2048" width="1531.0px" xml:space="preserve" xmlns="http://www.w3.org/2000/svg" xmlns:xlink="http://www.w3.org/1999/xlink" zoomAndPan="magnify"><path d="M897,1497v167H649l-159-252l-24-42c-5.333-6-9-13-11-21h-3l-9,21c-6.667,13.333-15,28-25,44l-155,250H5v-167h128l197-291  L145,934H8V766h276l139,228c1.333,2.667,9,16.667,23,42c5.333,6,9,13,11,21h3c2-6,5.667-13,11-21l25-42l140-228h257v168H768  l-184,267l204,296H897z M1536,1714v206h-514l-4-27c-2-30-3-45.333-3-46c0-42.667,8.667-81.667,26-117  c17.333-35.333,39-64.167,65-86.5s54-44,84-65s58-39.167,84-54.5s47.667-33.333,65-54s26-42,26-64c0-25.333-9.833-46.167-29.5-62.5  s-43.167-24.5-70.5-24.5c-34,0-66.333,13-97,39c-9.333,7.333-21.333,20-36,38l-105-92c17.333-24.667,38.333-46.667,63-66  c53.333-43.333,116-65,188-65c73.333,0,132.667,19.833,178,59.5s68,92.5,68,158.5c0,44-11.5,83.5-34.5,118.5s-51,63.667-84,86  s-66.167,43.167-99.5,62.5s-62.333,40.333-87,63s-38.333,47-41,73h232v-80H1536z"/></svg>