<?xml version="1.0" ?><svg contentScriptType="text/ecmascript" contentStyleType="text/css" enable-background="new 0 0 2048 2048" height="2048px" id="Layer_1" preserveAspectRatio="xMidYMid meet" version="1.1" viewBox="5.0 0 1529.0 2048" width="1529.0px" xml:space="preserve" xmlns="http://www.w3.org/2000/svg" xmlns:xlink="http://www.w3.org/1999/xlink" zoomAndPan="magnify"><path d="M897,1497v167H649l-159-252l-24-42c-5.333-6-9-13-11-21h-3l-9,21c-6.667,13.333-15,28-25,44l-155,250H5v-167h128l197-291  L145,934H8V766h276l139,228c1.333,2.667,9,16.667,23,42c5.333,6,9,13,11,21h3c2-6,5.667-13,11-21l25-42l140-228h257v168H768  l-184,267l204,296H897z M1534,818v206h-514l-3-27c-2.667-18.667-4-34-4-46c0-42.667,8.667-81.667,26-117  c17.333-35.333,39-64.167,65-86.5s54-44,84-65s58-39.167,84-54.5c26-15.333,47.667-33.333,65-54s26-42,26-64  c0-25.333-9.833-46.167-29.5-62.5S1290.333,423,1263,423c-34,0-66.333,13-97,39c-9.333,7.333-21.333,20-36,38l-105-92  c17.333-24.667,38.333-46.667,63-66c55.333-43.333,118-65,188-65c73.333,0,132.667,19.833,178,59.5s68,92.5,68,158.5  c0,37.333-8.167,71.667-24.5,103s-37,56.833-62,76.5s-52.167,39.167-81.5,58.5s-56.667,36.167-82,50.5s-47.167,31.5-65.5,51.5  s-28.5,41-30.5,63h232v-80H1534z"/></svg>