<?xml version="1.0" ?><svg contentScriptType="text/ecmascript" contentStyleType="text/css" enable-background="new 0 0 2048 2048" height="2048px" id="Layer_1" preserveAspectRatio="xMidYMid meet" version="1.1" viewBox="0.0 0 1792.0 2048" width="1792.0px" xml:space="preserve" xmlns="http://www.w3.org/2000/svg" xmlns:xlink="http://www.w3.org/1999/xlink" zoomAndPan="magnify"><path d="M1792,1472v128c0,17.333-6.333,32.333-19,45s-27.667,19-45,19H64c-17.333,0-32.333-6.333-45-19s-19-27.667-19-45v-128  c0-17.333,6.333-32.333,19-45s27.667-19,45-19h1664c17.333,0,32.333,6.333,45,19S1792,1454.667,1792,1472z M1792,1088v128  c0,17.333-6.333,32.333-19,45s-27.667,19-45,19H448c-17.333,0-32.333-6.333-45-19s-19-27.667-19-45v-128  c0-17.333,6.333-32.333,19-45s27.667-19,45-19h1280c17.333,0,32.333,6.333,45,19S1792,1070.667,1792,1088z M1792,704v128  c0,17.333-6.333,32.333-19,45s-27.667,19-45,19H192c-17.333,0-32.333-6.333-45-19s-19-27.667-19-45V704c0-17.333,6.333-32.333,19-45  s27.667-19,45-19h1536c17.333,0,32.333,6.333,45,19S1792,686.667,1792,704z M1792,320v128c0,17.333-6.333,32.333-19,45  s-27.667,19-45,19H576c-17.333,0-32.333-6.333-45-19s-19-27.667-19-45V320c0-17.333,6.333-32.333,19-45s27.667-19,45-19h1152  c17.333,0,32.333,6.333,45,19S1792,302.667,1792,320z"/></svg>