<?xml version="1.0" ?><svg contentScriptType="text/ecmascript" contentStyleType="text/css" enable-background="new 0 0 2048 2048" height="2048px" id="Layer_1" preserveAspectRatio="xMidYMid meet" version="1.1" viewBox="0.0 0 1536.0 2048" width="1536.0px" xml:space="preserve" xmlns="http://www.w3.org/2000/svg" xmlns:xlink="http://www.w3.org/1999/xlink" zoomAndPan="magnify"><path d="M48,351c-24.667-1.333-39.667-2.667-45-4l-3-88c8.667-0.667,22-1,40-1c40,0,77.333,1.333,112,4c88,4.667,143.333,7,166,7  c57.333,0,113.333-1,168-3c77.333-2.667,126-4.333,146-5c37.333,0,66-0.667,86-2l-1,14l2,64v9c-40,6-81.333,9-124,9  c-40,0-66.333,8.333-79,25c-8.667,9.333-13,53.333-13,132c0,8.667,0.167,19.5,0.5,32.5S504,566,504,570l1,229l14,280  c4,82.667,21,150,51,202c23.333,39.333,55.333,70,96,92c58.667,31.333,117.667,47,177,47c69.333,0,133-9.333,191-28  c37.333-12,70.333-29,99-51c32-24,53.667-45.333,65-64c24-37.333,41.667-75.333,53-114c14-48.667,21-125,21-229  c0-52.667-1.167-95.333-3.5-128s-6-73.5-11-122.5S1248,581.333,1244,524l-4-59c-3.333-44.667-11.333-74-24-88  c-22.667-23.333-48.333-34.667-77-34l-100,2l-14-3l2-86h84l205,10c50.667,2,116-1.333,196-10l18,2c4,25.333,6,42.333,6,51  c0,4.667-1.333,15-4,31c-30,8-58,12.333-84,13c-48.667,7.333-75,13-79,17c-10,10-15,23.667-15,41c0,4.667,0.5,13.667,1.5,27  s1.5,23.667,1.5,31c5.333,12.667,12.667,144.667,22,396c4,130-1,231.333-15,304c-10,50.667-23.667,91.333-41,122  c-25.333,43.333-62.667,84.333-112,123c-50,38-110.667,67.667-182,89c-72.667,22-157.667,33-255,33c-111.333,0-206-15.333-284-46  c-79.333-31.333-139-72-179-122c-40.667-50.667-68.333-115.667-83-195c-10.667-53.333-16-132.333-16-237V603  c0-125.333-5.667-196.333-17-213C178.333,366,129.333,353,48,351z M1536,1760v-64c0-9.333-3-17-9-23s-13.667-9-23-9H32  c-9.333,0-17,3-23,9s-9,13.667-9,23v64c0,9.333,3,17,9,23s13.667,9,23,9h1472c9.333,0,17-3,23-9S1536,1769.333,1536,1760z"/></svg>