<?xml version="1.0" ?><svg contentScriptType="text/ecmascript" contentStyleType="text/css" enable-background="new 0 0 2048 2048" height="2048px" id="Layer_1" preserveAspectRatio="xMidYMid meet" version="1.1" viewBox="0.0 0 1792.0 2048" width="1792.0px" xml:space="preserve" xmlns="http://www.w3.org/2000/svg" xmlns:xlink="http://www.w3.org/1999/xlink" zoomAndPan="magnify"><path d="M1792,480v1088c0,28-13,47.667-39,59c-8.667,3.333-17,5-25,5c-18,0-33-6.333-45-19l-403-403v166  c0,79.333-28.167,147.167-84.5,203.5S1071.333,1664,992,1664H288c-79.333,0-147.167-28.167-203.5-84.5S0,1455.333,0,1376V672  c0-79.333,28.167-147.167,84.5-203.5S208.667,384,288,384h704c79.333,0,147.167,28.167,203.5,84.5S1280,592.667,1280,672v165  l403-402c12-12.667,27-19,45-19c8,0,16.333,1.667,25,5C1779,432.333,1792,452,1792,480z"/></svg>